<?xml version="1.0" encoding="utf-8"?>
<!-- Generator: Adobe Illustrator 12.0.0, SVG Export Plug-In . SVG Version: 6.00 Build 51448)  -->
<!DOCTYPE svg PUBLIC "-//W3C//DTD SVG 1.1//EN" "http://www.w3.org/Graphics/SVG/1.1/DTD/svg11.dtd" [
	<!ENTITY ns_svg "http://www.w3.org/2000/svg">
	<!ENTITY ns_xlink "http://www.w3.org/1999/xlink">
]>
<svg  version="1.1" id="Layer_1" xmlns="&ns_svg;" xmlns:xlink="&ns_xlink;" width="751" height="601" viewBox="0 0 751 601"
	 overflow="visible" enable-background="new 0 0 751 601" xml:space="preserve">
<g>
	<g>
		<g>
			<path fill="#FFFFFF" d="M0.5,50.5c0-27.6142578,22.3852539-50,50-50h650c27.6142578,0,50,22.3857422,50,50v500
				c0,27.6152344-22.3857422,50-50,50h-650c-27.6147461,0-50-22.3847656-50-50V50.5L0.5,50.5z"/>
			<path fill="#FFFFFF" d="M375.5,300.5"/>
		</g>
		<g>
			<path fill="none" stroke="#000000" stroke-linecap="round" stroke-linejoin="round" stroke-miterlimit="3.863693" d="M0.5,50.5
				c0-27.6142578,22.3852539-50,50-50h650c27.6142578,0,50,22.3857422,50,50v500c0,27.6152344-22.3857422,50-50,50h-650
				c-27.6147461,0-50-22.3847656-50-50V50.5L0.5,50.5z"/>
			<path fill="none" stroke="#000000" stroke-linecap="round" stroke-linejoin="round" stroke-miterlimit="3.863693" d="
				M375.5,300.5"/>
		</g>
	</g>
	<g>
		<g>
			<path d="M10.5,50.5c0-22.0913086,17.9082031-40,40-40h650c22.0917969,0,40,17.9086914,40,40v500
				c0,22.0917969-17.9082031,40-40,40h-650c-22.0917969,0-40-17.9082031-40-40V50.5L10.5,50.5z"/>
			<path d="M375.5,300.5"/>
		</g>
	</g>
	<g>
		<g>
			<path fill="#FFFFFF" d="M25.5,50.5c0-13.8071289,11.1923828-25,25-25h650c13.8066406,0,25,11.1928711,25,25v500
				c0,13.8076172-11.1933594,25-25,25h-650c-13.8076172,0-25-11.1923828-25-25V50.5L25.5,50.5z"/>
			<path fill="#FFFFFF" d="M375.5,300.5"/>
		</g>
	</g>
</g>
<g>
	<path fill-rule="evenodd" clip-rule="evenodd" d="M111.7036133,445.3125V210.5864258H85.3349609v-36.7436523h3.0258789
		c6.0517578,0,12.1035156-1.5844727,18.1557617-4.7548828c6.0517578-3.1699219,11.0947266-7.637207,15.1293945-13.4003906
		h36.7436523v289.625H111.7036133z"/>
	<path fill-rule="evenodd" clip-rule="evenodd" d="M220.96875,445.3125
		c0.5761719-17.0019531,2.737793-32.5644531,6.484375-46.6855469c3.7460938-14.1210938,9.6538086-28.0976563,17.7231445-41.9316406
		c6.0517578-10.9511719,13.5444336-21.109375,22.4780273-30.4746094
		c8.934082-9.3662109,18.4443359-17.7949219,28.5302734-25.2880859c2.59375-1.440918,4.8994141-2.9541016,6.9169922-4.5390625
		c2.0170898-1.5849609,4.0341797-3.0981445,6.0517578-4.5390625l15.5615234-8.2133789l14.265625-8.2133789l13.8330078-7.78125
		c5.7631836-3.7456055,10.4462891-8.4287109,14.0488281-14.0488281c3.6020508-5.6191406,5.4033203-11.4545898,5.4033203-17.5068359
		c0-5.4755859-1.440918-10.5908203-4.3232422-15.3461914c-2.8813477-4.7543945-6.7001953-8.8613281-11.4550781-12.3193359
		s-10.3027344-6.1958008-16.6425781-8.2133789c-6.3398438-2.0170898-13.1123047-3.0258789-20.3168945-3.0258789
		c-14.6977539,0-26.5854492,3.4580078-35.6625977,10.3745117c-9.078125,6.9160156-14.7695313,17.0029297-17.0751953,30.2592773
		l-45.8212891-9.9423828c4.8994141-24.2070313,16.1381836-43.1552734,33.7177734-56.8442383
		C272.265625,157.3447266,293.8793945,150.5,319.527832,150.5c13.8325195,0,26.7290039,2.3056641,38.6889648,6.9165039
		c11.9594727,4.6108398,22.3339844,10.8071289,31.1230469,18.5878906c8.7900391,7.78125,15.7783203,16.9311523,20.9667969,27.449707
		c5.1865234,10.5185547,7.7802734,21.6860352,7.7802734,33.5014648c0,11.2392578-2.5214844,22.262207-7.5654297,33.0688477
		c-5.0429688,10.8071289-12.3193359,20.3891602-21.8291016,28.746582c-2.3056641,1.7290039-4.3955078,3.3129883-6.2685547,4.7543945
		s-3.8183594,2.59375-5.8359375,3.4589844l-14.2646484,9.0771484l-15.5620117,8.2138672l-14.2651367,8.2128906
		c-6.9165039,4.0351563-13.0400391,8.2851563-18.3720703,12.7519531
		c-5.3310547,4.4667969-10.2304688,9.2949219-14.6967773,14.4824219
		c-4.4672852,5.1865234-8.6459961,10.9501953-12.5361328,17.2900391
		c-3.890625,6.3398438-7.5649414,13.5449219-11.0229492,21.6142578h142.21875V445.3125H220.96875z"/>
	<path fill-rule="evenodd" clip-rule="evenodd" d="M665.6650391,349.7792969
		c0,14.6972656-2.4492188,28.2421875-7.3486328,40.6347656c-4.8994141,12.3916016-11.7441406,22.9824219-20.5332031,31.7714844
		c-8.7890625,8.7900391-19.3085938,15.7060547-31.5566406,20.75C593.9794922,447.9785156,580.5068359,450.5,565.8085938,450.5
		c-11.8144531,0-22.8378906-1.8730469-33.0683594-5.6191406c-10.2304688-3.7470703-19.5966797-8.9335938-28.0976563-15.5625
		c-8.5019531-6.6279297-15.7783203-14.6972656-21.8300781-24.2070313
		c-6.0527344-9.5097656-10.5195313-20.1728516-13.4013672-31.9882813l44.9570313-12.96875
		c3.4580078,14.1210938,9.7978516,24.9277344,19.0205078,32.4199219
		c9.2216797,7.4941406,20.7490234,11.2402344,34.5820313,11.2402344c7.78125,0,14.8417969-1.296875,21.1816406-3.890625
		s11.7431641-6.1240234,16.2099609-10.5908203c4.4667969-4.4677734,7.9970703-9.7978516,10.5908203-15.9941406
		s3.890625-13.0400391,3.890625-20.5332031s-1.4414063-14.5537109-4.3222656-21.1816406
		c-2.8828125-6.6279297-6.9169922-11.8154297-12.1044922-15.5625c-1.7285156-1.1513672-3.2421875-2.0888672-4.5380859-2.8095703
		c-1.296875-0.7207031-2.8828125-1.2246094-4.7558594-1.5126953s-4.3222656-0.5761719-7.3486328-0.8642578
		c-3.0263672-0.2890625-7.2763672-0.5761719-12.7519531-0.8652344h-5.1875v-46.6855469v1.296875h1.296875h0.8642578h9.078125
		c9.2216797,0,16.2822266-2.4492188,21.1816406-7.3486328c4.8994141-4.8989258,7.3486328-11.9594727,7.3486328-21.1816406
		c0-11.2392578-3.9619141-20.5332031-11.8876953-27.8823242c-7.9248047-7.3481445-17.7949219-11.0224609-29.6113281-11.0224609
		c-19.3076172,0-33.8613281,9.5097656-43.6591797,28.5302734l-42.7958984-15.9941406
		c7.4931641-18.4438477,18.8046875-32.925293,33.9335938-43.4438477C529.7138672,155.7597656,546.7890625,150.5,565.8085938,150.5
		c12.1044922,0,23.5595703,2.3056641,34.3662109,6.9165039c10.8076172,4.6108398,20.2451172,10.9511719,28.3144531,19.0200195
		c8.0693359,8.0693359,14.4091797,17.5073242,19.0205078,28.3144531
		c4.6103516,10.8066406,6.9160156,22.2617188,6.9160156,34.3657227c0,8.6459961-1.1523438,16.4267578-3.4580078,23.3432617
		S644.3398438,277.4453125,638,286.6674805c5.4746094,4.8989258,9.9414063,9.5820313,13.4003906,14.0493164
		c3.4580078,4.4658203,6.2675781,9.1484375,8.4287109,14.0488281c2.1611328,4.8984375,3.6748047,10.1582031,4.5390625,15.7773438
		C665.2324219,336.1630859,665.6650391,342.5742188,665.6650391,349.7792969z"/>
</g>
</svg>
